<mxfile host="app.diagrams.net" modified="2022-02-07T10:58:31.569Z" agent="5.0 (Windows NT 10.0; Win64; x64) AppleWebKit/537.36 (KHTML, like Gecko) Chrome/97.0.4692.71 Safari/537.36" etag="YR9YqGK0Y-GbeI97mBhb" version="16.5.3" type="github">
  <diagram id="OtRHDh2QPA0wwFGUeck9" name="Page-1">
    <mxGraphModel dx="1427" dy="771" grid="1" gridSize="10" guides="1" tooltips="1" connect="1" arrows="1" fold="1" page="1" pageScale="1" pageWidth="827" pageHeight="1169" math="0" shadow="0">
      <root>
        <mxCell id="0" />
        <mxCell id="1" parent="0" />
        <mxCell id="8VKuzojI8z7lgV21DUIg-1" value="" style="rounded=0;whiteSpace=wrap;html=1;" vertex="1" parent="1">
          <mxGeometry x="80" y="170" width="674" height="450" as="geometry" />
        </mxCell>
        <mxCell id="8VKuzojI8z7lgV21DUIg-2" value="消息发送规则配置" style="rounded=1;whiteSpace=wrap;html=1;" vertex="1" parent="1">
          <mxGeometry x="322" y="240" width="190" height="40" as="geometry" />
        </mxCell>
        <mxCell id="8VKuzojI8z7lgV21DUIg-13" value="" style="edgeStyle=orthogonalEdgeStyle;rounded=0;orthogonalLoop=1;jettySize=auto;html=1;" edge="1" parent="1" source="8VKuzojI8z7lgV21DUIg-3" target="8VKuzojI8z7lgV21DUIg-12">
          <mxGeometry relative="1" as="geometry" />
        </mxCell>
        <mxCell id="8VKuzojI8z7lgV21DUIg-3" value="消息类型" style="rounded=1;whiteSpace=wrap;html=1;" vertex="1" parent="1">
          <mxGeometry x="262" y="340" width="60" height="30" as="geometry" />
        </mxCell>
        <mxCell id="8VKuzojI8z7lgV21DUIg-4" value="内容模板&lt;br&gt;/参数格式" style="rounded=1;whiteSpace=wrap;html=1;" vertex="1" parent="1">
          <mxGeometry x="387" y="340" width="60" height="30" as="geometry" />
        </mxCell>
        <mxCell id="8VKuzojI8z7lgV21DUIg-5" value="参数配置" style="rounded=1;whiteSpace=wrap;html=1;" vertex="1" parent="1">
          <mxGeometry x="512" y="340" width="60" height="30" as="geometry" />
        </mxCell>
        <mxCell id="8VKuzojI8z7lgV21DUIg-6" value="" style="endArrow=classic;html=1;rounded=0;entryX=0.5;entryY=0;entryDx=0;entryDy=0;" edge="1" parent="1" target="8VKuzojI8z7lgV21DUIg-3">
          <mxGeometry width="50" height="50" relative="1" as="geometry">
            <mxPoint x="417" y="280" as="sourcePoint" />
            <mxPoint x="460" y="280" as="targetPoint" />
          </mxGeometry>
        </mxCell>
        <mxCell id="8VKuzojI8z7lgV21DUIg-7" value="" style="endArrow=classic;html=1;rounded=0;exitX=0.5;exitY=1;exitDx=0;exitDy=0;" edge="1" parent="1" source="8VKuzojI8z7lgV21DUIg-2" target="8VKuzojI8z7lgV21DUIg-4">
          <mxGeometry width="50" height="50" relative="1" as="geometry">
            <mxPoint x="435.74" y="287.84000000000003" as="sourcePoint" />
            <mxPoint x="302" y="340" as="targetPoint" />
          </mxGeometry>
        </mxCell>
        <mxCell id="8VKuzojI8z7lgV21DUIg-8" value="" style="endArrow=classic;html=1;rounded=0;entryX=0.5;entryY=0;entryDx=0;entryDy=0;" edge="1" parent="1" target="8VKuzojI8z7lgV21DUIg-5">
          <mxGeometry width="50" height="50" relative="1" as="geometry">
            <mxPoint x="420" y="280" as="sourcePoint" />
            <mxPoint x="427" y="350" as="targetPoint" />
          </mxGeometry>
        </mxCell>
        <mxCell id="8VKuzojI8z7lgV21DUIg-16" value="" style="edgeStyle=orthogonalEdgeStyle;rounded=0;orthogonalLoop=1;jettySize=auto;html=1;" edge="1" parent="1" source="8VKuzojI8z7lgV21DUIg-12" target="8VKuzojI8z7lgV21DUIg-15">
          <mxGeometry relative="1" as="geometry" />
        </mxCell>
        <mxCell id="8VKuzojI8z7lgV21DUIg-18" value="" style="edgeStyle=orthogonalEdgeStyle;rounded=0;orthogonalLoop=1;jettySize=auto;html=1;" edge="1" parent="1" source="8VKuzojI8z7lgV21DUIg-12" target="8VKuzojI8z7lgV21DUIg-17">
          <mxGeometry relative="1" as="geometry" />
        </mxCell>
        <mxCell id="8VKuzojI8z7lgV21DUIg-12" value="发送通道" style="whiteSpace=wrap;html=1;rounded=1;" vertex="1" parent="1">
          <mxGeometry x="262" y="420" width="60" height="30" as="geometry" />
        </mxCell>
        <mxCell id="8VKuzojI8z7lgV21DUIg-15" value="SDK&lt;br&gt;账号配置" style="whiteSpace=wrap;html=1;rounded=1;" vertex="1" parent="1">
          <mxGeometry x="263" y="490" width="58" height="35" as="geometry" />
        </mxCell>
        <mxCell id="8VKuzojI8z7lgV21DUIg-17" value="服务能力&lt;br&gt;/支持类型" style="whiteSpace=wrap;html=1;rounded=1;" vertex="1" parent="1">
          <mxGeometry x="385" y="417.5" width="58" height="35" as="geometry" />
        </mxCell>
      </root>
    </mxGraphModel>
  </diagram>
</mxfile>
